#!OML:ASF E:\acrobat2\Project_11_07_03\Capture day 1\Session 1\Acrobat.ASF
:FULLY-SPECIFIED
:DEGREES
1101
root 4.7705 8.50416 -7.75284 -248.032 2.61123 40.3815
lowerback 51.8317 -1.73314 8.42992
upperback 14.2553 2.12545 -9.21324
thorax -4.51272 2.67852 -15.1296
lowerneck -22.6656 2.61962 -19.6596
upperneck 36.1393 4.87133 21.1669
head 15.1981 2.46336 14.228
rclavicle -7.97127e-014 3.78486e-013
rhumerus -82.0267 28.0063 -100.453
rradius 93.502
rwrist 347.436
rhand -14.4205 -44.6097
rfingers 7.12502
rthumb 11.7237 285.738
lclavicle -7.97127e-014 3.78486e-013
lhumerus 78.1598 -12.3554 5.67267
lradius 76.5307
lwrist -7.81467
lhand -46.8478 -43.3184
lfingers 7.12502
lthumb -19.5609 -14.2824
rfemur -107.565 -21.479 21.2529
rtibia 70.2317
rfoot -198.894 11.9041
rtoes 32.288
lfemur -111.928 28.7574 -18.1271
ltibia 65.4367
lfoot -503.397 1.49989
ltoes 48.1515
1102
root 4.73603 8.53039 -8.01987 -249.722 3.86769 40.4826
lowerback 52.7025 -2.16167 8.72193
upperback 13.9416 1.82728 -9.4445
thorax -5.02732 2.52422 -15.4516
lowerneck -22.4981 2.7533 -19.325
upperneck 35.5462 4.91022 21.072
head 14.872 2.54848 13.9673
rclavicle 6.95746e-015 9.54166e-015
rhumerus -82.9283 28.499 -100.779
rradius 93.74
rwrist 350.469
rhand -13.0124 -44.466
rfingers 7.12502
rthumb 13.0813 285.964
lclavicle 6.95746e-015 9.54166e-015
lhumerus 78.2808 -12.8326 6.13987
lradius 76.0306
lwrist -8.30721
lhand -48.0991 -44.1608
lfingers 7.12502
lthumb -20.7636 -15.2517
rfemur -107.272 -20.9663 21.2837
rtibia 67.8523
rfoot -198.974 12.0312
rtoes 31.6777
lfemur -111.662 28.0807 -19.4582
ltibia 64.5117
lfoot -503.016 0.889529
ltoes 48.5949
1103
root 4.70547 8.56135 -8.27791 -251.355 5.00637 40.4912
lowerback 53.5974 -2.58663 9.0067
upperback 13.6465 1.53294 -9.69744
thorax -5.52001 2.37643 -15.7953
lowerneck -22.4041 2.8971 -19.1121
upperneck 35.0004 4.99566 21.0911
head 14.5681 2.64682 13.8131
rclavicle 1.03368e-014 -5.08889e-014
rhumerus -83.7332 28.9698 -100.782
rradius 94.231
rwrist 353.17
rhand -11.4232 -44.2895
rfingers 7.12502
rthumb 14.6128 286.245
lclavicle 1.03368e-014 -5.08889e-014
lhumerus 77.9763 -13.2629 6.83313
lradius 76.2507
lwrist -8.4474
lhand -49.6395 -45.8102
lfingers 7.12502
lthumb -22.2431 -17.0702
rfemur -107.142 -20.6718 21.3857
rtibia 65.5286
rfoot -198.984 12.1249
rtoes 31.2043
lfemur -111.24 27.3475 -20.9047
ltibia 63.849
lfoot -502.804 0.365596
ltoes 48.8731
1104
root 4.67774 8.59559 -8.53145 -252.946 6.05841 40.37
lowerback 54.4905 -2.93586 9.25311
upperback 13.3667 1.30265 -9.94881
thorax -5.97596 2.25842 -16.1443
lowerneck -22.1721 3.0247 -18.9545
upperneck 34.3293 5.04354 21.1815
head 14.1873 2.73754 13.6687
rclavicle -6.36111e-015 1.27222e-013
rhumerus -84.5561 29.5075 -100.582
rradius 95.0228
rwrist 355.246
rhand -10.0088 -44.0994
rfingers 7.12502
rthumb 15.9752 286.539
lclavicle -6.36111e-015 1.27222e-013
lhumerus 77.4092 -13.6713 7.66978
lradius 77.0191
lwrist -8.26245
lhand -51.397 -48.38
lfingers 7.12502
lthumb -23.9294 -19.8511
rfemur -107.133 -20.5222 21.5035
rtibia 63.3275
rfoot -198.871 12.2719
rtoes 30.8923
lfemur -110.689 26.6601 -22.4473
ltibia 63.3842
lfoot -502.829 -0.0167646
ltoes 48.9252
1105
root 4.65025 8.63076 -8.78864 -254.4 7.05754 40.1371
lowerback 55.1395 -3.14481 9.44375
upperback 13.1433 1.18117 -10.1473
thorax -6.31496 2.18711 -16.4441
lowerneck -21.9055 3.14667 -18.8424
upperneck 33.6588 5.0883 21.3266
head 13.8044 2.82562 13.5615
rclavicle -8.50798e-014 -2.13097e-013
rhumerus -85.4707 30.2568 -100.297
rradius 96.1321
rwrist 356.392
rhand -9.10482 -44.0582
rfingers 7.12502
rthumb 16.8455 286.652
lclavicle -8.50798e-014 -2.13097e-013
lhumerus 76.7284 -14.0274 8.59253
lradius 78.0505
lwrist -7.79268
lhand -53.2604 -51.8438
lfingers 7.12502
lthumb -25.7152 -23.561
rfemur -107.351 -20.449 21.6313
rtibia 61.2222
rfoot -198.712 12.4049
rtoes 30.6669
lfemur -110.189 26.0562 -24.0868
ltibia 63.0178
lfoot -503.084 -0.31324
ltoes 48.9022
1106
root 4.62121 8.66481 -9.05767 -255.692 8.06097 39.7762
lowerback 55.3612 -3.1612 9.57674
upperback 13.0317 1.2109 -10.2558
thorax -6.44919 2.18433 -16.6626
lowerneck -21.6437 3.26495 -18.7628
upperneck 33.0411 5.14754 21.4704
head 13.4488 2.91065 13.4749
rclavicle 2.22639e-014 1.49486e-013
rhumerus -86.4695 31.3195 -99.9874
rradius 97.525
rwrist 356.41
rhand -8.83077 -44.309
rfingers 7.12502
rthumb 17.1093 286.424
lclavicle 2.22639e-014 1.49486e-013
lhumerus 76.0988 -14.3397 9.59542
lradius 78.9929
lwrist -7.17268
lhand -55.094 -56.2485
lfingers 7.12502
lthumb -27.4701 -28.2318
rfemur -107.793 -20.3533 21.7408
rtibia 59.244
rfoot -198.41 12.367
rtoes 30.6496
lfemur -109.874 25.591 -25.7801
ltibia 62.6466
lfoot -503.647 -0.473202
ltoes 48.5743
1107
root 4.58926 8.69656 -9.33686 -256.924 9.0921 39.3465
lowerback 55.2418 -3.04902 9.68153
upperback 13.0473 1.35108 -10.2746
thorax -6.37827 2.24018 -16.7952
lowerneck -21.3947 3.38434 -18.7455
upperneck 32.4712 5.23741 21.6143
head 13.1123 2.99737 13.4146
rclavicle 1.27222e-014 -8.90555e-014
rhumerus -87.5518 32.7439 -99.7439
rradius 99.0538
rwrist 355.636
rhand -9.38445 -44.6366
rfingers 7.12502
rthumb 16.5763 286.051
lclavicle 1.27222e-014 -8.90555e-014
lhumerus 75.6368 -14.622 10.7197
lradius 79.5609
lwrist -6.63255
lhand -56.8241 -61.5314
lfingers 7.12502
lthumb -29.1235 -33.789
rfemur -108.331 -20.2623 21.8329
rtibia 57.3547
rfoot -197.984 12
rtoes 30.8619
lfemur -109.647 25.2394 -27.424
ltibia 62.2542
lfoot -504.315 -0.610116
ltoes 48.4922
1108
root 4.55349 8.72423 -9.62736 -258.135 10.2264 38.8771
lowerback 54.8248 -2.84771 9.8118
upperback 13.1696 1.58951 -10.1957
thorax -6.12716 2.34765 -16.8531
lowerneck -21.1908 3.49824 -18.7581
upperneck 31.9997 5.35224 21.707
head 12.8274 3.07941 13.3609
rclavicle -3.33958e-014 1.27222e-014
rhumerus -88.5875 34.5224 -99.507
rradius 100.695
rwrist 353.963
rhand -10.3301 -45.283
rfingers 7.12502
rthumb 15.6658 285.331
lclavicle -3.33958e-014 1.27222e-014
lhumerus 75.3579 -14.9241 12.0352
lradius 79.6453
lwrist -6.35163
lhand -58.3383 -67.0514
lfingers 7.12502
lthumb -30.5685 -39.5686
rfemur -108.898 -20.1287 21.9407
rtibia 55.5257
rfoot -197.389 11.1767
rtoes 31.2276
lfemur -109.528 25.0099 -28.9147
ltibia 61.7953
lfoot -505.06 -0.721241
ltoes 48.6006
1109
root 4.51381 8.74545 -9.92729 -259.305 11.5147 38.4462
lowerback 54.1945 -2.63186 10.0622
upperback 13.3126 1.89036 -10.03
thorax -5.80224 2.47916 -16.8855
lowerneck -21.0213 3.63598 -18.7161
upperneck 31.711 5.50303 21.7248
head 12.6251 3.16517 13.2998
rclavicle 8.42847e-014 -1.59028e-013
rhumerus -89.5698 36.4753 -99.2987
rradius 102.251
rwrist 352.044
rhand -11.4809 -45.8749
rfingers 7.12502
rthumb 14.5572 284.656
lclavicle 8.42847e-014 -1.59028e-013
lhumerus 75.2383 -15.3457 13.5017
lradius 79.296
lwrist -6.28108
lhand -59.5525 -72.1411
lfingers 7.12502
lthumb -31.7257 -44.8805
rfemur -109.493 -19.9825 22.1327
rtibia 53.736
rfoot -196.585 9.87744
rtoes 31.8994
lfemur -109.554 24.8382 -30.1812
ltibia 61.2567
lfoot -505.798 -0.807891
ltoes 48.9164
